<svg id="Layer_1" data-name="Layer 1" xmlns="http://www.w3.org/2000/svg" xmlns:xlink="http://www.w3.org/1999/xlink" width="910.5" height="291.9" viewBox="0 0 910.5 291.9"><defs><clipPath id="clip-path" transform="translate(479 69.7)"><rect width="164.5" height="164.54" fill="none"/></clipPath><clipPath id="clip-path-2" transform="translate(479 69.7)"><rect x="5.7" y="-8.7" width="430" height="178" fill="none"/></clipPath></defs><title>fres-icon</title><g clip-path="url(#clip-path)"><g clip-path="url(#clip-path-2)"><path d="M-479-69.7H-9V147.2a15.1,15.1,0,0,0,.1,3,21.2,21.2,0,0,0,.9,3.1c-1.9.6-.9,2.2-.9,3.3C-9,177.2-9,197.9-9,218.5c0,1.3-.1,2.5-.2,3.6H-479Z" transform="translate(479 69.7)"/><path d="M431,145.3c-3.4,2.9-5.4,6.8-8.1,10.8v7l-1.4.2c-.2-.4-.5-.7-.5-.9.7-5-.9-9.1-4.1-12.8-1.2-1.4-2.2-2.9-3.6-4.8-.2,1.1-.3,1.5-.4,2.4h-6v16.5L404,162V147.4h-4.5l-1.7-2.2c.3-.4.4-.7.5-.7h18.6l5.5,7.7,4.7-7.9H431Z" transform="translate(479 69.7)"/><path d="M431,136.3l-2.2,1.1-2.7-2.4-2.7,2.2h-6l-2.3-2.6v-5.1l2.9-2.4c-.5-2.2-.9-4.1-1.3-6.2l2.9-2c2.1-1,4.3-.5,6.4.9V125l-2.8,1.8,2.3,3.8a15.2,15.2,0,0,0,.8-2.2H429c-.2,1.5.7,3.1-1.1,4.5l3.1,2.4Zm-12.9-2.5c.9,1.7,2.5,1.7,3.9,1.4s1.5-1.3,2.2-1.9l-3.8-4.8-2.3,1.1Zm3.5-8.5c1.8-2.7,1.8-2.7-.4-5.3l-1.5,3.5Z" transform="translate(479 69.7)"/><path d="M278.7,53.5c.8.8,1.2,1.5,1.8,1.7,6.2,1.2,9.3,5.5,11.1,11.1a13.5,13.5,0,0,1,.4,2.8v41a2.2,2.2,0,0,1-.3,1H263v-4.2c0-12.2-.1-24.3.1-36.5,0-3.4-.9-6-3.5-8h-4.5v48.7H224.4a7,7,0,0,1-.4-5.7,6.7,6.7,0,0,0,0-2V28.9a35.9,35.9,0,0,0-.8-5.3l.8-.8-.8-.9A51.1,51.1,0,0,0,223,1.3h3.5c10.4,0,20.7-.1,31,0a123.2,123.2,0,0,1,16.1,1.1,20.6,20.6,0,0,1,9.2,4.1c4.8,3.6,7.2,8.2,8.4,14s.4,12.1.8,18.1c.1,1.9-2,9-3.1,10.2C286.4,51.7,283.2,53.2,278.7,53.5ZM255.2,21V44.1c4.6.1,5.3-.3,7.9-4.8-.8-5.5,1.2-11.3-1.4-17.2Z" transform="translate(479 69.7)"/><path d="M428.4,34.1h-29L398.2,33a7.2,7.2,0,0,0,.6-6.5,31,31,0,0,1-.8-5.8,18.4,18.4,0,0,1-1.4-1.4h-4.2c-4.4,4.1-4,9.1-2.2,14.5s8.5,6.6,13.3,9.5A182.9,182.9,0,0,1,420,54.4c4.4,3.4,6.6,7.7,8.2,12.6a26.3,26.3,0,0,1,1.8,8.3c.1,4.3.2,8.6,0,13a80.2,80.2,0,0,1-1.3,8.2c-1.1,1.5-2.4,3.6-4,5.5a24.3,24.3,0,0,1-15.6,8.3c-2.4,2-5.5.6-8.2,1.8s-5.7.5-8.4.1c-6.5-1-13.2-1.6-18.9-5s-9.6-6.6-11-12.8c-.1-.5-.5-.8-.6-1.3a93,93,0,0,1-.8-19.8c3.9,0,8.1-.7,11.8.1,5.6,1.3,11.1.4,17,1,0,3.9-.1,7.8.1,11.8a43.4,43.4,0,0,0,.7,5.8l5.5,1.6,3.7-4.1V78.9a7.1,7.1,0,0,0-2-5.2,39.2,39.2,0,0,0-9.1-7.1c-6.3-3.8-12.6-7.5-18.6-11.7a26.2,26.2,0,0,1-8.9-11.8c-.1-.3-.4-.6-.4-.8.7-2.4-1.1-4.3-1-6.6.1-4-.1-8,.1-12a63.6,63.6,0,0,1,1.2-7.2,9.5,9.5,0,0,0,1.6-2.6c1.1-4.5,4.7-6.5,8.3-8.6s7.9-3.2,12.3-4.2A51.2,51.2,0,0,1,399.1.4c7.6.6,15.1,2.4,21.5,7.1,3,2.1,4.7,5.3,5.6,9.1s.6,5.8.9,8.6S427.9,30.9,428.4,34.1Z" transform="translate(479 69.7)"/><path d="M333.2,88.3h21.7V111H302.1V1.5h51.8V22.9l-1.2,1.2H333.3V43.2h18.5v22H333.2Z" transform="translate(479 69.7)"/><path d="M217.9,1.4V24.2H197.2v19h17.3l1.4,1.4V65.2H197.1v45.9h-31V1.4Z" transform="translate(479 69.7)"/><path d="M155.9,162.2H10.2V1.7C14.3,1,140.6.8,155.9,1.5Zm-3.9-3V5.8l.4-.4.6-.7-.4-.3H14.2V159.2Z" transform="translate(479 69.7)"/><path d="M205,129.3v7.8h-2.8V118.4h11.2l3.5,2V127l-3,2.1,5.3,8h-3.9l-5.5-7.8Zm.2-8a16.4,16.4,0,0,0-.2,2.2,18.4,18.4,0,0,0,.2,2.6h7.5c1.6-2.5,1.6-2.5-.3-4.8Z" transform="translate(479 69.7)"/><path d="M299.3,128.6l6,8.4-3.9.3-5.4-7.9h-4.9v7.8h-2.9V118.4c4.8.4,10.1-1.7,14.8,2.2V124C303,127.7,303,127.7,299.3,128.6Zm-8-7.3v4.8h8.5c.1-3,.1-3-1.3-4.8Z" transform="translate(479 69.7)"/><path d="M233.9,129.2l5.7,7.7-3.2.5-5.4-7.3-5.9-1.2v8.3h-2.9V118.4h12c1.1,1.1,2.2,2.3,3.7,4.1v3.4Zm-8.7-3.2h8.9l1.2-3-1.7-1.6h-8.4Z" transform="translate(479 69.7)"/><path d="M298,149.9v13.2h-2.8V144.6c1.7-.9,2.9-.1,3.8,1.2l7.7,11.5c.7-4.3.1-8.4.4-12.9l2.8-.2v18.9l-2.5.2Z" transform="translate(479 69.7)"/><path d="M308.1,137.1V118.4h13.8a23.5,23.5,0,0,1,.1,2.8H311.2v5.1h10.7v2.9H311.2v5h11.7v2.9Z" transform="translate(479 69.7)"/><path d="M182.2,144.4h10.2c5.2,2.9,6.3,6.4,4.5,14.6l-4.9,4.2h-9.8Zm9.3,15.9c2.7-2.3,4.1-5,3.5-8.2l-2.4-4.7H185V154c.1,2.1-.3,4.3.3,6.3Z" transform="translate(479 69.7)"/><path d="M196,126.4v2.7h-9.8v5.1h10.7v2.9H183.3v-.2a.5.5,0,0,1-.2-.4V118.4h13.9c0,.8.1,1.7.2,2.8H186.2v5.2Z" transform="translate(479 69.7)"/><path d="M256.9,134.1v3H243.2V118.4h13.6v2.7c-3.3.4-6.9,0-10.6.3v4.8h9.7v2.9h-9.7c-.1,1.7-.1,3.2-.2,5Z" transform="translate(479 69.7)"/><path d="M388.1,137.1V118.4h13.8a23.5,23.5,0,0,1,.1,2.8H391.2v5.1h9.7v2.9h-9.7v5h10.7v2.9Z" transform="translate(479 69.7)"/><path d="M287,163.2h-6.7c-1.4-1.1-3.1-2.1-4.2-3.6a11.4,11.4,0,0,1-2-5.1c-.1-1.8.7-3.6,1.2-5.8l4.6-4.4h7.9l4.2,5.2v8.8Zm-.5-3c3.5-2.9,2.3-6.8,2.5-10.4-3.2-3.2-3.7-3.4-7.3-3.5l-3.3,3.1-1.2,5c.8,2.1,1.1,4.6,3.4,5.8Z" transform="translate(479 69.7)"/><path d="M349.5,144.3c5,3.2,6.2,6.9,4.4,14.7l-4.8,4.1c-4.8.2-4.8.2-9.5-1.8-.5-.8-1-1.6-1.4-2.4a25.4,25.4,0,0,1-1.1-2.6c-.4-4.6-.6-9.7,6-12Zm-9.5,6.5c.2,2.8-.6,5.8,1.8,8.8l6.7,1,3.4-4.6c1-4.5-1.5-7.2-4.4-9.7C343.2,146.4,342.6,146.8,340,150.8Z" transform="translate(479 69.7)"/><path d="M165.1,163.1V144.4h13.8a23.5,23.5,0,0,1,.1,2.8H168.2v5.1h9.6c.1.6.2,1,.3,1.9h-9.9v6h10.7v2.9Z" transform="translate(479 69.7)"/><path d="M326.9,123.4c2.2-5.9,7.5-6.2,12.8-3.9a13.9,13.9,0,0,1,1.1,2.1,15.6,15.6,0,0,1,.3,2.5h-2.7c-.4-.8-1-1.7-1.5-2.7h-5.5l.6.5-2.1,1c.7,3.1,3.8,1.8,5.1,3.4,3.1-.3,5.2,1.4,7,3.5v3.8l-3.4,3.6h-7.8c-1.4-1.3-2.5-2.5-3.7-3.7v-2h2.4c1.1,3,3.6,4,7.1,3.7l1.6-2.8.7.6v-2.4a19.9,19.9,0,0,0-3.4-1.3C329.9,128.3,329.9,128.3,326.9,123.4Z" transform="translate(479 69.7)"/><path d="M383.2,144.4h14.1c-.6,1.2-1.1,2-1.4,2.8h-9.7c-.1,1.6-.1,3.2-.2,4.9h9.7c.2.7.2,1.3.4,2.1h-9.9v6h10.6v2.7c.1-.1,0,.2-.1.2H383.2Z" transform="translate(479 69.7)"/><path d="M331.7,150.1c-1.1-1.3-2.1-2.7-3.1-3.8h-3.1l-3.1,3.3c2.6,1,4.6,2.1,6.8,2.6s5.2,2,5.9,5.6-1.4,4.6-4.4,5.4h-6.2l-4.4-3v-3.8c.6,0,1.3-.2,1.4,0s1.9,2.5,2.9,3.8h6c2.4-2.8,2.2-4-1-4.9l-4-1a6.5,6.5,0,0,1-5.4-5.2l3.1-4.9c3.4.3,6.7-.6,9.8,1.4l1.5,4.5Z" transform="translate(479 69.7)"/><path d="M369.8,118.4c.8,5.3-.9,10.7,1.5,15.8l5,1.3,2.6-2.7V118.5h2.9v14.9l-3.9,3.7h-7.6l-3.2-4.2V118.4Z" transform="translate(479 69.7)"/><path d="M214.9,159.8c-3.5,3.5-3.5,3.5-9.4,3.5L201,160V145.2a3.7,3.7,0,0,1,.1-.8l2.8-.2v14.5l1.6,1.6h5l1.6-1.7V144.4h3.4C214.4,149.5,215.4,154.6,214.9,159.8Z" transform="translate(479 69.7)"/><path d="M351.1,121.4,349,125c0,3.9-.9,8.4,5.3,10.3h2.4l4.1-5.4,2.3,1.8-4.2,5.5h-8.6l-4.2-5c-.1-5.7-1.2-11.4,6-13.9h5.3c2,1.6,5.2,2,4.5,5.8l-2.2.2c-.6-.9-1.2-1.8-1.8-2.9Z" transform="translate(479 69.7)"/><path d="M363.6,146.3l-3.6,3.4v6.9c.8,1.2,1.4,2.3,2.1,3.5h5.8l2.9-3.7h2.1v2.5l-4.3,4.3h-6a9,9,0,0,1-5.5-6.7c-.1-3.6-1.1-8.9,5-12.2h7.8c1,1.6,2.3,3.4,3.5,5.2-1.9,1.6-3.4.9-4-.5S365.9,146.2,363.6,146.3Z" transform="translate(479 69.7)"/><path d="M242.3,144.3h3.3c2.5,6.1,4.9,12.2,7.6,18.6-1,.1-2,.5-2.7.2a2.9,2.9,0,0,1-1.4-1.8,29.7,29.7,0,0,1-1.3-3.9h-7.4c-.8,2.4-.8,5.1-4.2,6.1-.1-1.3-.5-2.6-.1-3.5C238.7,155,240.3,149.5,242.3,144.3Zm1.2,3.8c-.5,1.4-.9,2.4-1.2,3.4-1,3.2-.5,3.8,2.9,3.7.3,0,.6-.3.8-.4C245.9,151.5,245.9,151.5,243.5,148.1Z" transform="translate(479 69.7)"/><path d="M229.1,163.3h-4.8l-5-4c-.2-3-2.2-5.3-.6-8.5s1.4-5.5,6.2-6.4c1.7.1,4.9-.9,7.9,1.1,0,1.6,2.5,2.9.6,4.9-2.2-.6-3.1-2.8-5-4.1a6.7,6.7,0,0,0-5.9,1.9c-1.3,4.7-1.3,4.7-.5,9.6l2.7,2.4h5l2.6-3.9h2.9C234.4,160,232.3,161.9,229.1,163.3Z" transform="translate(479 69.7)"/><path d="M178.9,118.4v2.8h-9.7v5.2h9.4a34.3,34.3,0,0,0-1.9,2.9h-7.6v7.8h-2.9c-.4-6-.1-12.3-.2-18.7Z" transform="translate(479 69.7)"/><path d="M261.5,121.4l-1.7-2.2c.3-.4.4-.7.5-.7h15.6c0,.7.1,1.6.2,2.7h-6v15.9h-2.9V121.4Z" transform="translate(479 69.7)"/><path d="M260,163.3h-2.5c-.1-.1-.3-.2-.3-.4V147.5h-4.6l-1.8-2.3c.4-.5.6-.9.8-.9h14.3v2.8H260v16.2Z" transform="translate(479 69.7)"/><path d="M376.2,144.4h2.7v18.8h-2.7Z" transform="translate(479 69.7)"/><path d="M270.9,164.1l-2.7-2.1V144.4l2.7-.2Z" transform="translate(479 69.7)"/><path d="M-2,159.3c2.7,0,3.7,2.2,5,4C.3,163.3-.7,161.1-2,159.3Z" transform="translate(479 69.7)"/><path d="M-7.8,169.4h6.7C-3.3,170.6-5.6,170.1-7.8,169.4Z" transform="translate(479 69.7)"/><path d="M-6,155.3H-8v-2A18.9,18.9,0,0,1-6,155.3Z" transform="translate(479 69.7)"/><path d="M7,167.3c.8.1,1.9-.5,2,1C8.3,168.1,7.1,168.8,7,167.3Z" transform="translate(479 69.7)"/><path d="M-5,156.3a4.7,4.7,0,0,0-1-1A4.7,4.7,0,0,1-5,156.3Z" transform="translate(479 69.7)"/><path d="M-4,157.3l-1-1A4.7,4.7,0,0,1-4,157.3Z" transform="translate(479 69.7)"/><path d="M-4,157.3l1,1A4.7,4.7,0,0,0-4,157.3Z" transform="translate(479 69.7)"/><path d="M-2,159.3l-1-1A4.7,4.7,0,0,1-2,159.3Z" transform="translate(479 69.7)"/><path d="M3,163.3a4.7,4.7,0,0,1,1,1Z" transform="translate(479 69.7)"/><path d="M5,165.3a4.7,4.7,0,0,0-1-1Z" transform="translate(479 69.7)"/><path d="M5,165.3a4.7,4.7,0,0,1,1,1Z" transform="translate(479 69.7)"/><path d="M7,167.3a4.7,4.7,0,0,0-1-1Z" transform="translate(479 69.7)"/><path d="M10,169.3l-1-1A4.7,4.7,0,0,1,10,169.3Z" transform="translate(479 69.7)"/><path d="M10.1,169.2l.8.7-.3.3-.7-.8Z" transform="translate(479 69.7)"/><path d="M99.6,149.4c-4-1.1-7.4-2.1-10.9-2.9a13,13,0,0,0-3.4-.2h-19c-7.5,0-15.7-5.5-19.4-11.9s-3.4-11-2.7-16.7c.4-2.9,1.2-6.1,3.4-8.6s2-3.8,3.5-5.5,6.2-4.4,9.9-6.3h6.3c2.3,1.4,4.9,2.1,6.5,4.2l2.8,3.8,4.6,6.8h4.7c.4-1.9,1-4,1.4-6.1l-4-3.7c-2.4.1-4.3-1.8-6.6-2.8s-4.9-1.5-5.3-5.1a9.3,9.3,0,0,0,.8-1.7c5.2-3.3,11-2.4,16.6-2.4a4.6,4.6,0,0,1,2.9,1.3c2.7,2.7,5.8,4.9,6.6,9.2s1.9,5.4,1.8,8.3c-.1.7.4,1.5.5,2.2s.8,2.9.3,3.8c-1.3,2.5-.7,5.1-.8,6.7-2.5,6.7-6.9,11.1-10.3,16.2a45.4,45.4,0,0,0-2.1,4.5C91.1,145.9,96.3,145.5,99.6,149.4Z" transform="translate(479 69.7)"/><path d="M92.5,28.3h5c3.7,2.3,5,5.2,6.6,9.8,2.5,7-.8,12.5-3.7,18.1-1.5,2.7-2.8,5.8-5.5,7.8s-3,2.2-5.1,2.3-2.9.8-4.8,1.3l.6,3.7c-3.6-4.6-5.9-9.4-3.9-15.2a6.1,6.1,0,0,0,.3-2.3c-.3-1.9.6-3.5,1-5.1s.3-3.4.9-5.2C86.1,36,87.2,33.5,92.5,28.3Z" transform="translate(479 69.7)"/><path d="M112.5,86.3h-6.2c-1.6-1.4-3.4-2.7-5-4l-.9-3.7A4.9,4.9,0,0,0,101,77c-.4-4.9,1.9-8.9,4.5-12.6a39.4,39.4,0,0,1,4.9-5.9,35.1,35.1,0,0,1,5.6-4.6,41.9,41.9,0,0,1,5.1-2.7c3.1.3,4.9,1.8,5.7,4.6,1.2,4.7-1.5,8.8-2.2,13.3a14.5,14.5,0,0,1-1,4.1C121.1,78.9,119.5,81.9,112.5,86.3Z" transform="translate(479 69.7)"/><path d="M71,74.6l-2.7,3.6L64,80.3H57.5l-2.9,2.9c-.3-.3-.8-.5-1-.8a11.7,11.7,0,0,1-1.5-3.9c-.5-4.3-1.8-8.6-1-13a40.5,40.5,0,0,1,2-7.6,46,46,0,0,1,3.1-7.2c1.5-3,3.6-5.5,7.3-6.5s4.5,2.7,6.2,4.2a56.6,56.6,0,0,1,1.4,13.4C70.9,66.1,71,70.4,71,74.6Z" transform="translate(479 69.7)"/><path d="M109.2,104c1.8-6.4,7.2-9.1,11.9-12.2,2.7-1.7,6-1.9,9.6-1.4.7.9,1.4,2.1,2.2,3.3,1,6.4-1.8,11.8-5.5,16.5s-6.1,6.5-10.9,7.1c-2.4,2.2-4.6.7-6.4-.6a5.4,5.4,0,0,1-1.9-6.5C109,108.1,108.9,106.1,109.2,104Z" transform="translate(479 69.7)"/><path d="M42,83.8c0,3.1-.1,5.9.1,8.7.2,4.5-1.7,8.2-3.8,12l-2,3.8c-3.9-1.9-8.3-3.8-10-8.4s-2.4-10.8,1.3-15.8c.9-1.2.7-3,2.1-4.2s1.6-2.3,2.3-3.5h5Z" transform="translate(479 69.7)"/><path d="M96.3,19.5c2.1-2,3.9-4.6,7.2-5.3.5,2.3,1.2,4.5,1.5,6.8s-1,3.9-2.8,5.6l-4.1-3.5-1.6,1-1.2-1C95.6,21.9,96,20.7,96.3,19.5Z" transform="translate(479 69.7)"/><path d="M124.2,46.9c1.5-4.5,5.3-5.8,9.6-6.8.6,4.3.2,7.8-3.9,10.3L127.4,47l-2,1.2Z" transform="translate(479 69.7)"/><path d="M33.3,61a26.8,26.8,0,0,0,2.4,2.4c.6,2.2,1.3,4.2,2,6.5l-1.4,2.7-2.5-1.9-3.7.7V66.8C31.2,65,32.1,63.2,33.3,61Z" transform="translate(479 69.7)"/><path d="M65.1,39.7c-2.5-3.1-4.7.6-7-.8l1.3-5.6L63.1,30C65.7,32.7,64.9,35.8,65.1,39.7Z" transform="translate(479 69.7)"/><path d="M133,85.9q1.8-2,3.6-3.6h3.3c0,1.4.1,2.8.2,4.4l-2.8,2.7a4.5,4.5,0,0,1-1.2-.6C134.9,87.9,135,85.8,133,85.9Z" transform="translate(479 69.7)"/><path d="M99.1,149.2l.8.7-.3.3-.7-.8Z" transform="translate(479 69.7)"/><path d="M233,149.8a7.4,7.4,0,0,0-4-4.5,13.9,13.9,0,0,0-6,.9c-2.6,1.2-2.5,3.8-3.3,5.7s.4,3.9.7,6.3l4.1,3.6h4.7c1.2-1,3.2-1.3,3.4-3.5.1-.4,1.3-.7,1.9-1" transform="translate(479 69.7)" fill="none" stroke="#000" stroke-linecap="round" stroke-linejoin="round" stroke-width="2"/><path d="M368.5,119.8c0,3.1.2,6.3,0,9.5s.6,4.2,2.3,6.4l6.2.8,3.5-3.1V119.8" transform="translate(479 69.7)" fill="none" stroke="#000" stroke-linecap="round" stroke-linejoin="round" stroke-width="2"/><path d="M202.5,145.8v13.6c1,.7,2,1.6,3,2.4h5l3-2.4V145.8" transform="translate(479 69.7)" fill="none" stroke="#000" stroke-linecap="round" stroke-linejoin="round" stroke-width="2"/><path d="M372.5,149.3c-2.3-.1-1.9-2.8-3.5-3.5l-6.3-.7-4.2,4.5v8l3.7,4.2H368l3.5-4" transform="translate(479 69.7)" fill="none" stroke="#000" stroke-linecap="round" stroke-linejoin="round" stroke-width="2"/><path d="M360.5,122.8l-2.9-3h-6.1l-4,4v7.5l3.2,4.5,6.1.6a8.9,8.9,0,0,0,4.2-4.6" transform="translate(479 69.7)" fill="none" stroke="#000" stroke-linecap="round" stroke-linejoin="round" stroke-width="2"/><path d="M10.5,169.8l-19.6-17h-2.4" transform="translate(479 69.7)" fill="none" stroke="#000" stroke-linecap="round" stroke-linejoin="round" stroke-width="2"/><path d="M332.5,148.8c-.6-1.8-2.1-2.6-3.5-3.5h-4.3l-3.5,3.8a7.9,7.9,0,0,0,5.3,3.8c2.6.5,5.6.9,7,3.9a8.5,8.5,0,0,1,0,1.7c-.7.9-1.8,2.1-2.7,3.3H325a5.6,5.6,0,0,1-4-5" transform="translate(479 69.7)" fill="none" stroke="#000" stroke-linecap="round" stroke-linejoin="round" stroke-width="2"/><path d="M339.5,122.8l-2.2-3h-5.8l-3.3,3.3,2.1,3.1c3.3,1.6,7,1.2,10,3.7v3.8c-.6.6-1.7,1.8-2.5,2.8l-7-.7-2.3-3" transform="translate(479 69.7)" fill="none" stroke="#000" stroke-linecap="round" stroke-linejoin="round" stroke-width="2"/><path d="M297.5,128.3l3.8-1.9v-4.9l-2.3-1.7h-8.5c-.1,0-.3.3-1,1v15" transform="translate(479 69.7)" fill="none" stroke="#000" stroke-linecap="round" stroke-linejoin="round" stroke-width="2"/><path d="M224.5,127.8H232l.2.7,4.3-3.1v-3.1a29.5,29.5,0,0,0-2.5-2.5h-9.5l-1,1v15" transform="translate(479 69.7)" fill="none" stroke="#000" stroke-linecap="round" stroke-linejoin="round" stroke-width="2"/><path d="M204.5,127.8c2.5.1,5.1-.4,7.7.6l3.3-2.6v-4.1l-2.5-1.9h-8.5l-1,1v15" transform="translate(479 69.7)" fill="none" stroke="#000" stroke-linecap="round" stroke-linejoin="round" stroke-width="2"/><path d="M84.5,65.3c-.9,2-1,3.9,1,5.5" transform="translate(479 69.7)" fill="none" stroke="#000" stroke-linecap="round" stroke-linejoin="round" stroke-width="2"/><path d="M252.5,162.3c-.6-.5-1.6-.9-1.9-1.6s-1-4.2-3.1-5.4c.4-3.7-1.5-6.4-3.6-9.5-2.2,2.8-2.5,6-3.6,8.9s-2.3,5.3-3.3,8.1" transform="translate(479 69.7)" fill="none" stroke="#000" stroke-linecap="round" stroke-linejoin="round" stroke-width="2"/><path d="M396.5,145.3l-5.5.5h-5.5c-.1,0-.3.3-1,1v14l1,.9h10" transform="translate(479 69.7)" fill="none" stroke="#000" stroke-linecap="round" stroke-linejoin="round" stroke-width="2"/><path d="M320.5,119.8H309.8V135c.4.4.6.7.7.7h11" transform="translate(479 69.7)" fill="none" stroke="#000" stroke-linecap="round" stroke-linejoin="round" stroke-width="2"/><path d="M400.5,119.8H389.8V135c.4.4.6.7.7.7h10" transform="translate(479 69.7)" fill="none" stroke="#000" stroke-linecap="round" stroke-linejoin="round" stroke-width="2"/><path d="M255.5,119.8H244.8V135l.7.7h10" transform="translate(479 69.7)" fill="none" stroke="#000" stroke-linecap="round" stroke-linejoin="round" stroke-width="2"/><path d="M195.5,119.8h-11v15l1,.9h10" transform="translate(479 69.7)" fill="none" stroke="#000" stroke-linecap="round" stroke-linejoin="round" stroke-width="2"/><path d="M425,134.3l-2,2h-4l-2.5-1.9v-5l8-5v-3.6l-3.1-1.7-2.6,1.9c-.9,2.4.4,4,1.2,5.8" transform="translate(479 69.7)" fill="none" stroke="#000" stroke-linecap="round" stroke-linejoin="round" stroke-width="2"/><path d="M177.5,145.8h-11v15l1,.9h10" transform="translate(479 69.7)" fill="none" stroke="#000" stroke-linecap="round" stroke-linejoin="round" stroke-width="2"/><path d="M269.5,145.8v14c.1,1,.4,2,.5,3" transform="translate(479 69.7)" fill="none" stroke="#000" stroke-linecap="round" stroke-linejoin="round" stroke-width="2"/><path d="M177.5,119.8h-10v16" transform="translate(479 69.7)" fill="none" stroke="#000" stroke-linecap="round" stroke-linejoin="round" stroke-width="2"/><path d="M377.5,145.8v16" transform="translate(479 69.7)" fill="none" stroke="#000" stroke-linecap="round" stroke-linejoin="round" stroke-width="2"/><path d="M405.5,146.8v13c.1,1,.4,2,.5,3" transform="translate(479 69.7)" fill="none" stroke="#000" stroke-linecap="round" stroke-linejoin="round" stroke-width="2"/><path d="M268.5,120.8v15" transform="translate(479 69.7)" fill="none" stroke="#000" stroke-linecap="round" stroke-linejoin="round" stroke-width="2"/><path d="M258.5,146.8v15" transform="translate(479 69.7)" fill="none" stroke="#000" stroke-linecap="round" stroke-linejoin="round" stroke-width="2"/><path d="M85.5,143.3a22,22,0,0,0,7,3.1,12.8,12.8,0,0,1,7,3.4" transform="translate(479 69.7)" fill="none" stroke="#000" stroke-linecap="round" stroke-linejoin="round" stroke-width="2"/><path d="M308.5,145.8v4.5a42.1,42.1,0,0,0,.1,5c.2,1.6-.9,2.9-.6,4.5a11.7,11.7,0,0,1,.5,2" transform="translate(479 69.7)" fill="none" stroke="#000" stroke-linecap="round" stroke-linejoin="round" stroke-width="2"/><path d="M296.5,145.8l1,1.5c-1.9,4.7-.6,9.6-1,14.5" transform="translate(479 69.7)" fill="none" stroke="#000" stroke-linecap="round" stroke-linejoin="round" stroke-width="2"/><path d="M422,153.8c-2-1.6-3.1-3.9-4.4-6.1s-2.6-3.2-5.1-2.4" transform="translate(479 69.7)" fill="none" stroke="#000" stroke-linecap="round" stroke-linejoin="round" stroke-width="2"/><path d="M298,148.3c3.3,2,4.2,5.7,6.5,8.5l2.5,2.5" transform="translate(479 69.7)" fill="none" stroke="#000" stroke-linecap="round" stroke-linejoin="round" stroke-width="2"/><path d="M430.5,144.8c-2.8.5-3.5,3.1-5,5l-3.5,4.9v8.1" transform="translate(479 69.7)" fill="none" stroke="#000" stroke-linecap="round" stroke-linejoin="round" stroke-width="2"/><path d="M167.5,153.3h10" transform="translate(479 69.7)" fill="none" stroke="#000" stroke-linecap="round" stroke-linejoin="round" stroke-width="2"/><path d="M385.5,153.3h10" transform="translate(479 69.7)" fill="none" stroke="#000" stroke-linecap="round" stroke-linejoin="round" stroke-width="2"/><path d="M320.5,127.8h-10" transform="translate(479 69.7)" fill="none" stroke="#000" stroke-linecap="round" stroke-linejoin="round" stroke-width="2"/><path d="M177.5,127.3l-9,.5" transform="translate(479 69.7)" fill="none" stroke="#000" stroke-linecap="round" stroke-linejoin="round" stroke-width="2"/><path d="M194.5,127.8h-9" transform="translate(479 69.7)" fill="none" stroke="#000" stroke-linecap="round" stroke-linejoin="round" stroke-width="2"/><path d="M254.5,127.8h-9" transform="translate(479 69.7)" fill="none" stroke="#000" stroke-linecap="round" stroke-linejoin="round" stroke-width="2"/><path d="M399.5,127.8h-9" transform="translate(479 69.7)" fill="none" stroke="#000" stroke-linecap="round" stroke-linejoin="round" stroke-width="2"/><path d="M232,128.8c1.4,2,2.6,4,4.1,5.9s1.6,1.1,2.4,1.6" transform="translate(479 69.7)" fill="none" stroke="#000" stroke-linecap="round" stroke-linejoin="round" stroke-width="2"/><path d="M260.5,119.3a8.3,8.3,0,0,0,1.5.4h12.5" transform="translate(479 69.7)" fill="none" stroke="#000" stroke-linecap="round" stroke-linejoin="round" stroke-width="2"/><path d="M251.5,145.3c4.3,1,8.7.4,13,.5" transform="translate(479 69.7)" fill="none" stroke="#000" stroke-linecap="round" stroke-linejoin="round" stroke-width="2"/><path d="M398.5,145.3c4.3,1,8.7.4,13,.5" transform="translate(479 69.7)" fill="none" stroke="#000" stroke-linecap="round" stroke-linejoin="round" stroke-width="2"/><path d="M290.5,127.8h6.2l5.8,8" transform="translate(479 69.7)" fill="none" stroke="#000" stroke-linecap="round" stroke-linejoin="round" stroke-width="2"/><path d="M-1.5,169.8h-6" transform="translate(479 69.7)" fill="none" stroke="#000" stroke-linecap="round" stroke-linejoin="round" stroke-width="2"/><path d="M241,155.8a8.8,8.8,0,0,0,6,0" transform="translate(479 69.7)" fill="none" stroke="#000" stroke-linecap="round" stroke-linejoin="round" stroke-width="2"/><path d="M421.5,127.3c1.9,3.4,4.9,5.7,7.5,8.5" transform="translate(479 69.7)" fill="none" stroke="#000" stroke-linecap="round" stroke-linejoin="round" stroke-width="2"/><path d="M103,14.8l-2.5,5.5" transform="translate(479 69.7)" fill="none" stroke="#000" stroke-linecap="round" stroke-linejoin="round" stroke-width="2"/><path d="M33.5,61.8c.2,2.9.5,5.8-2,8" transform="translate(479 69.7)" fill="none" stroke="#000" stroke-linecap="round" stroke-linejoin="round" stroke-width="2"/><path d="M130,49.8c.9-1.9,1-3.7-1.4-5.3l-3.1,2.3" transform="translate(479 69.7)" fill="none" stroke="#000" stroke-linecap="round" stroke-linejoin="round" stroke-width="2"/><path d="M137.8,84.3c-.4.3-.8.8-1.3.9l-3,.6" transform="translate(479 69.7)" fill="none" stroke="#000" stroke-linecap="round" stroke-linejoin="round" stroke-width="2"/><path d="M185,145.8l-1.5,1a3.3,3.3,0,0,0,0,1v12.5c0,.3.4.6.5,1l.5.4h7c2.8-1.8,4.8-4.1,5-7.5s-1.6-6.2-3.8-8.5h-7.2" transform="translate(479 69.7)" fill="none" stroke="#000" stroke-linecap="round" stroke-linejoin="round" stroke-width="2"/><path d="M344.5,145.3c-2.8.7-4.9,2.2-6,5.9v5.7l4.4,4.9h5.6c4.7-3.9,6-6.8,4.5-10.5-.7-1.6-1-3.4-2.9-4.7a8,8,0,0,0-5.1-1.3" transform="translate(479 69.7)" fill="none" stroke="#000" stroke-linecap="round" stroke-linejoin="round" stroke-width="2"/><path d="M281.5,145.3l-4.6,3.3c-.5,2.2-.8,3.7-1.1,5.2h-.3a3.4,3.4,0,0,0,0,1c1.6,2.4,1.6,5.9,6,7h5l4-4.1v-7.9l-3.3-4-5.2-.5" transform="translate(479 69.7)" fill="none" stroke="#000" stroke-linecap="round" stroke-linejoin="round" stroke-width="2"/><path d="M14,2.8l-1.9.6V160.8H154V12.8c0-3,.2-6,.3-9.4-.8-1.2-2.4-.6-3.8-.6H14.5" transform="translate(479 69.7)" fill="none" stroke="#000" stroke-linecap="round" stroke-linejoin="round" stroke-width="2"/></g></g></svg>